<svg width="1596" height="492" viewBox="0 0 1596 492" fill="none" xmlns="http://www.w3.org/2000/svg"><g fill="currentColor">

<path d="M52 110H332V152H52V110Z"/>
<path d="M52 212H232V254H52V212Z"/>
<path d="M52 314H292V356H52V314Z"/>
<path d="M434 131C434 149.225 419.225 164 401 164C382.775 164 368 149.225 368 131C368 112.775 382.775 98 401 98C419.225 98 434 112.775 434 131Z"/>
<path d="M434 233C434 251.225 419.225 266 401 266C382.775 266 368 251.225 368 233C368 214.775 382.775 200 401 200C419.225 200 434 214.775 434 233Z"/>
<path d="M434 335C434 353.225 419.225 368 401 368C382.775 368 368 353.225 368 335C368 316.775 382.775 302 401 302C419.225 302 434 316.775 434 335Z"/>

<path d="M604 110H884V152H604V110Z"/>
<path d="M604 252H784V294H604V252Z"/>
<path d="M604 394H844V436H604V394Z"/>
<path d="M664 65C664 83.2254 649.225 98 631 98C612.775 98 598 83.2254 598 65C598 46.7746 612.775 32 631 32C649.225 32 664 46.7746 664 65Z"/>
<path d="M664 207C664 225.225 649.225 240 631 240C612.775 240 598 225.225 598 207C598 188.775 612.775 174 631 174C649.225 174 664 188.775 664 207Z"/>
<path d="M664 349C664 367.225 649.225 382 631 382C612.775 382 598 367.225 598 349C598 330.775 612.775 316 631 316C649.225 316 664 330.775 664 349Z"/>

<path d="M1156 110H1436V152H1156V110Z"/>
<path d="M1156 212H1336V254H1156V212Z"/>
<path d="M1156 314H1396V356H1156V314Z"/>

</g></svg>
