<svg width="1596" height="492" viewBox="0 0 1596 492" fill="none" xmlns="http://www.w3.org/2000/svg"><g fill="currentColor">

<path fill-rule="evenodd" clip-rule="evenodd" d="M246 388C324.424 388 388 324.424 388 246C388 167.576 324.424 104 246 104C167.576 104 104 167.576 104 246C104 324.424 167.576 388 246 388ZM246 346C301.228 346 346 301.228 346 246C346 190.772 301.228 146 246 146C190.772 146 146 190.772 146 246C146 301.228 190.772 346 246 346Z"/>
<path d="M266 80H226V20H266V80Z"/>
<path d="M226 412H266V472H226V412Z"/>
<path d="M377.522 142.762L349.238 114.478L391.664 72.0517L419.948 100.336L377.522 142.762Z"/>
<path d="M114.478 349.238L142.762 377.522L100.336 419.948L72.0517 391.664L114.478 349.238Z"/>
<path d="M412 266V226H472V266H412Z"/>
<path d="M80 226V266H20L20 226H80Z"/>
<path d="M349.238 377.522L377.522 349.238L419.948 391.664L391.664 419.948L349.238 377.522Z"/>
<path d="M142.762 114.478L114.478 142.762L72.0517 100.336L100.336 72.0517L142.762 114.478Z"/>

<path d="M749.453 333.446L728.447 369.829C685.206 345.489 656 299.155 656 246C656 167.576 719.576 104 798 104C811.128 104 823.839 105.781 835.906 109.116L825.033 149.697C816.434 147.288 807.367 146 798 146C742.772 146 698 190.772 698 246C698 283.611 718.763 316.372 749.453 333.446Z"/>
<path d="M818 80H778V20H818V80Z"/>
<path d="M694.762 377.522L666.478 349.238L624.052 391.664L652.336 419.948L694.762 377.522Z"/>
<path d="M632 226V266H572V226H632Z"/>
<path d="M666.478 142.762L694.762 114.478L652.336 72.0517L624.052 100.336L666.478 142.762Z"/>
<path d="M891.085 97.9571L863.802 108.43C889.221 153.536 891.865 215.864 865.919 274.139C839.935 332.499 791.746 372.27 741.137 383.496L751.567 410.666C831.773 430.341 917.016 390.473 951.789 312.371C986.525 234.354 959.211 144.441 891.085 97.9571Z"/>

<path d="M1443.47 97.957L1416.19 108.43C1441.61 153.536 1444.25 215.864 1418.3 274.139C1392.32 332.499 1344.13 372.27 1293.52 383.496L1303.95 410.666C1384.16 430.341 1469.4 390.473 1504.17 312.371C1538.91 234.354 1511.6 144.441 1443.47 97.957Z"/>

</g></svg>
