<svg version="1" xmlns="http://www.w3.org/2000/svg" width="1365.333" height="1365.333" viewBox="0 0 1024.000000 1024.000000"><path d="M165 193.3c-1.3.7-3 2.4-3.7 3.7-1 2-1.3 66.3-1.3 314.8 0 289.7.1 312.6 1.7 315.2.9 1.6 2.7 3.3 4 3.9 1.7.8 84.3 1.1 286.3 1.1h284v60.1c0 54.3.2 60.4 1.7 62.9.9 1.6 2.7 3.3 4 3.9 3.3 1.5 113.3 1.5 116.6 0 1.3-.6 3.1-2.3 4-3.9 1.6-2.6 1.7-12.7 1.7-123s-.1-120.4-1.7-123c-.9-1.6-2.7-3.3-4-3.9-1.5-.7-12.4-1.1-30.3-1.1h-28V384h28.1c30.5 0 32.4-.3 34.8-5.7.8-1.7 1.1-29.3 1.1-90.4 0-80.9-.1-88.3-1.7-91-.9-1.5-2.8-3.3-4.2-3.9-1.8-.7-30.7-.9-91.9-.8l-89.4.3-2.4 3-2.4 3V704H544V384h28.1c30.5 0 32.4-.3 34.8-5.7 1.6-3.4 1.5-177.2 0-180.7-.6-1.3-2.5-3.2-4.3-4.1-2.8-1.5-11.1-1.6-92.4-1.3l-89.4.3-2.4 2.8-2.4 2.8V704H288V384h28c17.9 0 28.8-.4 30.3-1.1 1.3-.6 3.1-2.3 4-3.9 1.6-2.6 1.7-10.5 1.7-91s-.1-88.4-1.7-91c-.9-1.6-2.7-3.3-4-3.9-3.7-1.7-178-1.5-181.3.2z"/></svg>